<svg xmlns="http://www.w3.org/2000/svg" viewBox="0 0 1364.02 457.87"><defs><style>.cls-1{fill:none;stroke:#fff;stroke-miterlimit:10;stroke-width:28px;}.cls-2,.cls-3,.cls-4{isolation:isolate;}.cls-3,.cls-4{font-size:128.95px;font-family:Rockwell-BoldItalic, Rockwell;font-weight:700;font-style:italic;}.cls-3,.cls-4,.cls-5{fill:#fff;}.cls-4{letter-spacing:0.02em;}</style></defs><title>Element 1</title><g id="Ebene_2" data-name="Ebene 2"><g id="Ebene_1-2" data-name="Ebene 1"><path class="cls-1" d="M577.56,388.51a165.55,165.55,0,0,1-118.12-49.33,168,168,0,0,1-17.33-20.6,165.68,165.68,0,0,1-30.59-91.73v-4.41a166.12,166.12,0,0,1,166-166.09H703"/><g class="cls-2"><text class="cls-3" transform="translate(499.06 208.04)">Visitenka</text><text class="cls-4" transform="translate(1071.29 208.04)">r</text><text class="cls-3" transform="translate(1127.65 208.04)">ten-</text><text class="cls-3" transform="translate(499.06 325.04)">Online</text></g><path class="cls-5" d="M126.73,195.82q121-74.08,242.09-148.15c12.72-7.78,25.7-6.89,35.69,2.26,2.48,2.27,4.15,5.11,5.87,7.91q18.69,30.51,37.31,61.06a167.54,167.54,0,0,1,18.58-19.74L426.52,34.21a18.09,18.09,0,0,1-1.71-1.44c-17-18-45.77-22.74-70.87-7.25-80.51,49.68-161.33,98.85-242,148.27C84,190.93,76,223.57,93.06,251.48q54.62,89.45,109.38,178.8a60,60,0,0,0,7.9,10.33c18.43,19.23,46,22.78,69.12,8.67q79.1-48.25,158.08-96.71l21.9-13.39a168,168,0,0,1-17.33-20.6Q415,335.26,387.8,351.92L267.33,425.63c-16.94,10.37-32.58,6.6-43-10.35l-108-176.49C106,221.9,109.83,206.16,126.73,195.82Z"/><path class="cls-5" d="M148.66,83.79Q209.49,46.56,270.31,9.36c11.45-7,23.77-10.56,37.3-9a54.22,54.22,0,0,1,30.51,14.09c2.49,2.25,2.37,3.86-.41,5.54q-8.26,5-16.49,10.11a5.25,5.25,0,0,1-5.87.06c-10.46-5.7-20.58-4.77-30.65,1.4Q163.31,106,41.82,180.28C29.1,188.07,24,200,27.54,213.07a33,33,0,0,0,4.17,8.43q54.67,89.43,109.42,178.82c7.73,12.62,17.74,17,32,13.95,2.47-.52,4-.06,5.25,2.05,3.16,5.28,6.35,10.53,9.63,15.73,1.89,3,.8,4.52-2.17,5.77-23.23,9.71-52.33.56-65.58-21q-56-91.23-111.8-182.64C-7.81,207.56,0,174.92,26.65,158.49Q87.57,121,148.66,83.79Z"/><path class="cls-5" d="M328.56,335q-25.71,15.75-51.42,31.46c-7.84,4.78-14.61,3.14-19.54-4.6-4.54-7.11-8.75-14.4-9.51-23-1.48-16.9,6.16-29.08,20-37.95,2.27-1.45,4.67-2.74,6.79-4.39,4.75-3.72,4.1-11.17-1.46-13.28-7.16-2.71-14.39-5.15-20.89-9.3a2.93,2.93,0,0,0-2.12-.44c-9.38,2.86-14.92-3.39-20.49-8.92-2.84-2.82-4.53-6.68-5.73-10.61-.58-1.91-1.18-4.07.13-5.62,2.68-3.18,1-5.84-.48-8.59a66,66,0,0,1-7.44-20.59c-2.63-14.39,3.18-25.15,14.27-33.58a51.85,51.85,0,0,1,15.4-8.22c13.18-4.23,24.52-.61,34.57,8.18A61.13,61.13,0,0,1,293,199.77c1.25,2.06,2.56,3.58,5.41,2.54,2.34-.86,4.43.27,6.13,1.9,7.29,7,10.38,15.57,9.51,25.59-.17,2-.5,4.23-2.14,5.28-3,1.93-2.81,4.48-2.56,7.43A52.65,52.65,0,0,1,308.25,259c-.9,3.85-.2,7.29,3.06,9.66s6.76,1.72,10.06-.44c4.91-3.19,10-6.16,15.6-7.86,17.41-5.27,33.83,1.08,44.41,17q2.37,3.57,4.46,7.29c4,7.06,2.2,13.91-4.73,18.17Q354.88,319,328.56,335Z"/><path class="cls-5" d="M327,144.51l40.24-24.61c8.36-5.09,13-4,18.28,4.35a80.9,80.9,0,0,1,4.35,7.34c3.38,6.74,2.19,11.19-4.18,15.27-5.92,3.8-12,7.39-18,11.06l-55.56,34a11.57,11.57,0,0,1-14.69-2.76,78.34,78.34,0,0,0-12.12-12.57c-4.46-3.77-4.52-3.8.67-7Z"/><path class="cls-5" d="M372.49,221.7l-44.13,27c-1.63,1-3.56,3.25-5.44.73s-4.8-4.9-2.66-8.35c4.51-7.31,4.47-15.06,2.8-23-.52-2.44.24-3.91,2.32-5.18q37.25-22.71,74.45-45.47c5.08-3.09,9.27-2.19,13.1,2.4a51.07,51.07,0,0,1,7.3,11.82c2.69,6,1.56,9.89-4,13.34Q394.38,208.34,372.49,221.7Z"/><path class="cls-5" d="M416.28,262.25,395.6,274.91c-2.28,1.4-3.94,1-5.21-1.3A49,49,0,0,0,372,255c-3.39-2-.91-3.34.87-4.43,9.3-5.75,18.64-11.43,28-17.14l10.66-6.55A166,166,0,0,0,416.28,262.25Z"/></g></g></svg>